<?xml version="1.0" encoding="utf-8"?>
<!-- Generator: Adobe Illustrator 16.0.0, SVG Export Plug-In . SVG Version: 6.00 Build 0)  -->
<!DOCTYPE svg PUBLIC "-//W3C//DTD SVG 1.1//EN" "http://www.w3.org/Graphics/SVG/1.1/DTD/svg11.dtd">
<svg version="1.1" id="Layer_1" xmlns="http://www.w3.org/2000/svg" xmlns:xlink="http://www.w3.org/1999/xlink" x="0px" y="0px"
	 width="880px" height="496px" viewBox="50 52 880 496" enable-background="new 50 52 880 496" xml:space="preserve">
<rect x="50" y="52" fill="#242424" width="880" height="496"/>
<path fill="#424242" d="M470.59,203.463c-10.419,10.474-15.702,20.659-15.701,30.271c0,22.041,15.455,30.188,20.19,32.164
	c4.167,1.733,7.522,2.088,9.654,1.918l0.515-7.494l-17.82-17.163l18.296,10.271l0.764-11.082l-13.597-14.854l14.002,8.947
	l2.979-25.524l3.126,25.604l14.113-9.027l-13.687,14.945l0.795,11.024l18.353-10.307l-17.854,17.196l0.53,7.369
	c0.271,0.021,0.562,0.032,0.884,0.034c5.133,0.011,13.113-2.795,19.368-9.082c4.386-4.407,9.611-12.313,9.612-24.94
	c0-21.885-27.511-40.885-35.144-45.733C486.321,190.32,478.127,195.885,470.59,203.463L470.59,203.463L470.59,203.463z"/>
<g>
	<path fill="#424242" d="M250.769,311.697c0-12.145,8.88-20.842,21.083-20.842c12.142,0,21.022,8.699,21.022,20.842
		s-8.88,20.84-21.022,20.84C259.65,332.535,250.769,323.838,250.769,311.697z M284.055,311.697c0-7.553-4.772-13.229-12.203-13.229
		c-7.49,0-12.263,5.679-12.263,13.229c0,7.488,4.772,13.229,12.263,13.229C279.282,324.925,284.055,319.186,284.055,311.697z"/>
	<path fill="#424242" d="M319.276,331.812l-7.914-14.317h-6.283v14.317h-8.578V291.52h18.847c8.397,0,13.593,5.498,13.593,12.987
		c0,7.067-4.531,10.935-8.881,11.961l9.122,15.345H319.276z M320.122,304.447c0-3.322-2.597-5.377-5.98-5.377h-9.062v10.873h9.062
		C317.525,309.943,320.122,307.891,320.122,304.447z"/>
	<path fill="#424242" d="M330.998,311.697c0-12.748,9.665-20.842,21.505-20.842c8.337,0,13.592,4.229,16.613,9l-7.068,3.865
		c-1.873-2.839-5.315-5.255-9.544-5.255c-7.37,0-12.686,5.617-12.686,13.229c0,7.609,5.314,13.229,12.686,13.229
		c3.564,0,6.887-1.569,8.519-3.081v-4.832H350.39v-7.49h19.209v15.465c-4.106,4.59-9.846,7.551-17.095,7.551
		C340.663,332.535,330.998,324.382,330.998,311.697z"/>
	<path fill="#424242" d="M401.86,331.812l-2.538-6.826h-17.276l-2.537,6.826h-9.726l15.523-40.293h10.752l15.525,40.293H401.86z
		 M390.684,300.098l-6.281,17.338h12.563L390.684,300.098z"/>
	<path fill="#424242" d="M441.913,331.812l-19.21-26.276v26.276h-8.577V291.52h8.82l18.666,25.312V291.52h8.578v40.291
		L441.913,331.812L441.913,331.812z"/>
	<path fill="#424242" d="M455.749,331.812V291.52h8.578v40.291L455.749,331.812L455.749,331.812z"/>
	<path fill="#424242" d="M469.161,311.697c0-12.445,9.363-20.842,21.506-20.842c8.82,0,13.955,4.771,16.792,9.846l-7.367,3.625
		c-1.69-3.262-5.315-5.858-9.425-5.858c-7.368,0-12.687,5.618-12.687,13.229c0,7.609,5.315,13.229,12.687,13.229
		c4.107,0,7.732-2.6,9.425-5.859l7.367,3.563c-2.838,5.015-7.973,9.905-16.792,9.905
		C478.524,332.535,469.161,324.078,469.161,311.697z"/>
	<path fill="#424242" d="M526.311,331.812V294.66h-13.17v-3.141h29.845v3.141h-13.17v37.15h-3.505V331.812z"/>
	<path fill="#424242" d="M579.109,331.812v-19.149h-25.552v19.147h-3.444V291.52h3.444v18.002h25.552V291.52h3.442v40.291
		L579.109,331.812L579.109,331.812z"/>
	<path fill="#424242" d="M591.375,331.812V291.52h25.553v3.142h-22.108v14.92h21.688v3.144h-21.688v15.946h22.108v3.142H591.375
		L591.375,331.812z"/>
	<path fill="#424242" d="M658.432,331.812V295.87l-14.68,35.94h-1.33l-14.738-35.94v35.94h-3.442V291.52h5.137l13.713,33.525
		l13.65-33.525h5.192v40.291L658.432,331.812L658.432,331.812z"/>
	<path fill="#424242" d="M669.549,331.812V291.52h25.553v3.142h-22.108v14.92h21.688v3.144h-21.688v15.946h22.108v3.142H669.549
		L669.549,331.812z"/>
	<path fill="#424242" d="M700.18,326.133l2.234-2.598c2.598,2.959,6.824,5.857,12.625,5.857c8.215,0,10.568-4.592,10.568-8.035
		c0-11.838-24.162-5.678-24.162-19.752c0-6.584,5.92-10.752,13.229-10.752c5.979,0,10.57,2.113,13.648,5.678l-2.295,2.537
		c-2.896-3.504-7.009-5.074-11.535-5.074c-5.379,0-9.426,3.082-9.426,7.431c0,10.33,24.161,4.651,24.161,19.692
		c0,5.193-3.44,11.416-14.313,11.416C708.273,332.535,703.26,329.818,700.18,326.133z"/>
</g>
<g>
	<path fill="#666666" d="M297.234,380.5l-3.043-4.771h-2.413v4.771h-1.495v-12.01h4.826c2.197,0,3.781,1.404,3.781,3.619
		c0,2.161-1.494,3.35-3.133,3.493l3.241,4.897H297.234z M297.342,372.109c0-1.368-0.99-2.286-2.413-2.286h-3.151v4.591h3.151
		C296.352,374.414,297.342,373.46,297.342,372.109z"/>
	<path fill="#666666" d="M301.246,380.5v-12.01h7.869v1.333h-6.374v3.871h6.248v1.332h-6.248v4.142h6.374v1.332H301.246z"/>
	<path fill="#666666" d="M311.002,374.504c0-3.69,2.719-6.212,6.176-6.212c2.125,0,3.601,1.009,4.555,2.377l-1.242,0.702
		c-0.684-1.026-1.945-1.746-3.313-1.746c-2.629,0-4.627,1.998-4.627,4.879c0,2.845,1.999,4.88,4.627,4.88
		c1.368,0,2.629-0.738,3.313-1.747l1.26,0.685c-1.008,1.387-2.449,2.395-4.573,2.395
		C313.721,380.716,311.002,378.195,311.002,374.504z"/>
	<path fill="#666666" d="M323.17,374.504c0-3.547,2.413-6.212,5.959-6.212c3.547,0,5.978,2.665,5.978,6.212
		s-2.431,6.212-5.978,6.212C325.583,380.716,323.17,378.051,323.17,374.504z M333.559,374.504c0-2.809-1.746-4.879-4.429-4.879
		c-2.701,0-4.411,2.07-4.411,4.879c0,2.791,1.71,4.88,4.411,4.88C331.812,379.384,333.559,377.295,333.559,374.504z"/>
	<path fill="#666666" d="M347.689,380.5v-10.101L343.62,380.5h-0.612l-4.087-10.101V380.5h-1.495v-12.01h2.143l3.745,9.255
		l3.728-9.255h2.143v12.01H347.689z"/>
	<path fill="#666666" d="M362.25,380.5v-10.101l-4.069,10.101h-0.612l-4.087-10.101V380.5h-1.495v-12.01h2.143l3.745,9.255
		l3.728-9.255h2.143v12.01H362.25z"/>
	<path fill="#666666" d="M366.549,380.5v-12.01h7.869v1.333h-6.374v3.871h6.248v1.332h-6.248v4.142h6.374v1.332H366.549z"/>
	<path fill="#666666" d="M385.29,380.5l-7.004-9.579v9.579h-1.495v-12.01h1.531l6.914,9.381v-9.381h1.494v12.01H385.29z"/>
	<path fill="#666666" d="M389.535,380.5v-12.01h4.105c3.745,0,6.158,2.611,6.158,6.014c0,3.421-2.413,5.996-6.158,5.996H389.535z
		 M398.25,374.504c0-2.593-1.639-4.681-4.609-4.681h-2.611v9.345h2.611C396.558,379.168,398.25,377.079,398.25,374.504z"/>
	<path fill="#666666" d="M402.135,380.5v-12.01h7.869v1.333h-6.374v3.871h6.248v1.332h-6.248v4.142h6.374v1.332H402.135z"/>
	<path fill="#666666" d="M412.376,380.5v-12.01h4.105c3.745,0,6.158,2.611,6.158,6.014c0,3.421-2.413,5.996-6.158,5.996H412.376z
		 M421.091,374.504c0-2.593-1.639-4.681-4.609-4.681h-2.611v9.345h2.611C419.398,379.168,421.091,377.079,421.091,374.504z"/>
	<path fill="#666666" d="M429.638,380.5v-12.01h4.105c3.745,0,6.158,2.611,6.158,6.014c0,3.421-2.413,5.996-6.158,5.996H429.638z
		 M438.353,374.504c0-2.593-1.639-4.681-4.609-4.681h-2.611v9.345h2.611C436.66,379.168,438.353,377.079,438.353,374.504z"/>
	<path fill="#666666" d="M442.238,380.5v-12.01h1.495v12.01H442.238z"/>
	<path fill="#666666" d="M456.803,380.5v-10.101l-4.069,10.101h-0.612l-4.087-10.101V380.5h-1.495v-12.01h2.143l3.745,9.255
		l3.728-9.255h2.143v12.01H456.803z"/>
	<path fill="#666666" d="M461.102,380.5v-12.01h7.869v1.333h-6.374v3.871h6.248v1.332h-6.248v4.142h6.374v1.332H461.102z"/>
	<path fill="#666666" d="M479.842,380.5l-7.004-9.579v9.579h-1.495v-12.01h1.531l6.914,9.381v-9.381h1.494v12.01H479.842z"/>
	<path fill="#666666" d="M483.368,378.808l0.9-1.152c0.774,0.9,2.071,1.729,3.763,1.729c2.143,0,2.826-1.152,2.826-2.089
		c0-3.097-7.111-1.368-7.111-5.653c0-1.98,1.764-3.35,4.141-3.35c1.818,0,3.241,0.631,4.25,1.692l-0.9,1.099
		c-0.9-1.008-2.161-1.44-3.475-1.44c-1.422,0-2.467,0.774-2.467,1.909c0,2.7,7.112,1.152,7.112,5.636
		c0,1.729-1.188,3.528-4.429,3.528C485.907,380.716,484.358,379.924,483.368,378.808z"/>
	<path fill="#666666" d="M494.636,380.5v-12.01h1.494v12.01H494.636z"/>
	<path fill="#666666" d="M498.451,374.504c0-3.547,2.413-6.212,5.96-6.212s5.978,2.665,5.978,6.212s-2.431,6.212-5.978,6.212
		S498.451,378.051,498.451,374.504z M508.841,374.504c0-2.809-1.747-4.879-4.43-4.879c-2.7,0-4.411,2.07-4.411,4.879
		c0,2.791,1.711,4.88,4.411,4.88C507.094,379.384,508.841,377.295,508.841,374.504z"/>
	<path fill="#666666" d="M521.207,380.5l-7.005-9.579v9.579h-1.494v-12.01h1.53l6.914,9.381v-9.381h1.495v12.01H521.207z"/>
	<path fill="#666666" d="M524.731,378.808l0.899-1.152c0.774,0.9,2.071,1.729,3.764,1.729c2.143,0,2.827-1.152,2.827-2.089
		c0-3.097-7.112-1.368-7.112-5.653c0-1.98,1.765-3.35,4.141-3.35c1.819,0,3.241,0.631,4.25,1.692l-0.9,1.099
		c-0.9-1.008-2.161-1.44-3.476-1.44c-1.422,0-2.467,0.774-2.467,1.909c0,2.7,7.112,1.152,7.112,5.636
		c0,1.729-1.188,3.528-4.429,3.528C527.27,380.716,525.722,379.924,524.731,378.808z"/>
	<path fill="#666666" d="M535.675,372.668c0-0.54,0.45-0.99,0.99-0.99s0.99,0.45,0.99,0.99c0,0.521-0.45,0.99-0.99,0.99
		S535.675,373.189,535.675,372.668z M535.675,379.689c0-0.54,0.45-0.99,0.99-0.99s0.99,0.45,0.99,0.99s-0.45,0.99-0.99,0.99
		S535.675,380.229,535.675,379.689z"/>
	<path fill="#666666" d="M543.937,377.385c0-1.458,1.135-2.574,2.575-3.078c-1.332-0.469-2.377-1.333-2.377-2.827
		c0-2.269,2.395-3.169,4.628-3.169c2.214,0,4.627,0.9,4.627,3.169c0,1.494-1.062,2.358-2.377,2.827
		c1.423,0.504,2.575,1.62,2.575,3.078c0,2.233-2.305,3.331-4.825,3.331C546.241,380.716,543.937,379.618,543.937,377.385z
		 M550.995,377.025c0-0.99-1.495-1.459-2.232-1.566c-0.757,0.107-2.233,0.576-2.233,1.566c0,0.864,0.973,1.422,2.233,1.422
		C549.986,378.447,550.995,377.89,550.995,377.025z M550.779,371.911c0-0.846-0.847-1.332-2.017-1.332
		c-1.188,0-2.035,0.486-2.035,1.332c0,0.883,1.297,1.261,2.035,1.387C549.5,373.172,550.779,372.794,550.779,371.911z"/>
	<path fill="#666666" d="M554.845,377.385c0-1.458,1.135-2.574,2.575-3.078c-1.332-0.469-2.377-1.333-2.377-2.827
		c0-2.269,2.395-3.169,4.628-3.169c2.214,0,4.627,0.9,4.627,3.169c0,1.494-1.062,2.358-2.377,2.827
		c1.423,0.504,2.575,1.62,2.575,3.078c0,2.233-2.305,3.331-4.825,3.331C557.149,380.716,554.845,379.618,554.845,377.385z
		 M561.903,377.025c0-0.99-1.495-1.459-2.232-1.566c-0.757,0.107-2.233,0.576-2.233,1.566c0,0.864,0.973,1.422,2.233,1.422
		C560.895,378.447,561.903,377.89,561.903,377.025z M561.688,371.911c0-0.846-0.847-1.332-2.017-1.332
		c-1.188,0-2.035,0.486-2.035,1.332c0,0.883,1.297,1.261,2.035,1.387C560.408,373.172,561.688,372.794,561.688,371.911z"/>
	<path fill="#666666" d="M565.734,374.504c0-3.097,1.53-6.193,4.97-6.193c3.438,0,4.969,3.097,4.969,6.193
		c0,3.098-1.53,6.212-4.969,6.212C567.265,380.716,565.734,377.602,565.734,374.504z M573.062,374.504
		c0-2.215-0.63-3.925-2.358-3.925c-1.711,0-2.359,1.71-2.359,3.925s0.648,3.943,2.359,3.943
		C572.414,378.447,573.062,376.719,573.062,374.504z"/>
	<path fill="#666666" d="M589.929,380.5l-3.007-4.394l-3.024,4.394h-3.043l4.357-6.158l-4.088-5.852h3.043l2.755,4.105l2.719-4.105
		h3.079l-4.087,5.834l4.357,6.176H589.929z"/>
	<path fill="#666666" d="M603.752,380.5v-2.484h-5.744v-2.017l4.771-7.509h3.529v7.274h1.548v2.251h-1.548v2.484H603.752z
		 M603.752,370.759l-3.241,5.006h3.241V370.759z"/>
	<path fill="#666666" d="M609.51,379.456l1.135-1.963c0.648,0.612,1.332,0.937,2.395,0.937c1.98,0,3.007-1.675,3.007-3.386
		c0-0.09,0-0.18,0-0.27c-0.576,0.811-1.782,1.548-3.097,1.548c-2.161,0-4.087-1.35-4.087-3.906c0-2.341,1.854-4.124,4.591-4.124
		c3.655,0,5.186,2.81,5.186,6.194c0,3.637-2.053,6.212-5.6,6.212C611.581,380.698,610.356,380.212,609.51,379.456z M616.028,372.992
		c-0.108-1.152-0.757-2.432-2.431-2.432c-1.387,0-2.143,0.937-2.143,1.765c0,1.261,1.098,1.801,2.214,1.801
		C614.588,374.126,615.452,373.712,616.028,372.992z"/>
	<path fill="#666666" d="M619.859,374.522c0-3.638,2.053-6.212,5.6-6.212c1.458,0,2.683,0.486,3.547,1.242l-1.152,1.963
		c-0.648-0.612-1.332-0.937-2.395-0.937c-1.765,0-3.007,1.494-3.007,3.403c0,0.09,0,0.162,0.018,0.252
		c0.559-0.811,1.765-1.549,3.079-1.549c2.161,0,4.105,1.351,4.105,3.907c0,2.341-1.873,4.123-4.609,4.123
		C621.39,380.716,619.859,377.907,619.859,374.522z M627.043,376.683c0-1.26-1.08-1.8-2.214-1.8c-0.9,0-1.783,0.414-2.359,1.134
		c0.108,1.152,0.757,2.431,2.431,2.431C626.287,378.447,627.043,377.511,627.043,376.683z"/>
	<path fill="#666666" d="M636.257,380.5v-12.01h4.825c2.413,0,3.764,1.656,3.764,3.619s-1.368,3.619-3.764,3.619h-3.331v4.771
		H636.257z M643.297,372.109c0-1.351-0.972-2.286-2.395-2.286h-3.151v4.573h3.151C642.325,374.396,643.297,373.46,643.297,372.109z"
		/>
	<path fill="#666666" d="M646.823,380.5v-12.01h1.494v12.01H646.823z"/>
	<path fill="#666666" d="M659.426,380.5l-3.835-5.113l-3.836,5.113h-1.818l4.682-6.158l-4.411-5.852h1.818l3.565,4.79l3.547-4.79
		h1.836l-4.411,5.834l4.682,6.176H659.426z"/>
	<path fill="#666666" d="M662.86,380.5v-12.01h7.868v1.333h-6.374v3.871h6.248v1.332h-6.248v4.142h6.374v1.332H662.86z"/>
	<path fill="#666666" d="M672.904,380.5v-12.01h1.495v10.678h5.581v1.332H672.904z"/>
	<path fill="#666666" d="M681.257,378.808l0.899-1.152c0.774,0.9,2.071,1.729,3.764,1.729c2.143,0,2.827-1.152,2.827-2.089
		c0-3.097-7.112-1.368-7.112-5.653c0-1.98,1.765-3.35,4.141-3.35c1.819,0,3.241,0.631,4.25,1.692l-0.9,1.099
		c-0.9-1.008-2.161-1.44-3.476-1.44c-1.422,0-2.467,0.774-2.467,1.909c0,2.7,7.112,1.152,7.112,5.636
		c0,1.729-1.188,3.528-4.429,3.528C683.795,380.716,682.247,379.924,681.257,378.808z"/>
</g>
</svg>
